<svg xmlns="http://www.w3.org/2000/svg" viewBox="0 0 24 24" fill="#7ee0ff">
  <path d="M20.447 20.452h-3.554v-5.569c0-1.328-.025-3.037-1.85-3.037-1.851 0-2.134 1.445-2.134 2.939v5.667H9.356V9h3.414v1.561h.049c.476-.9 1.637-1.85 3.369-1.85 3.605 0 4.272 2.373 4.272 5.459v6.282zM5.337 7.433a2.07 2.07 0 1 1 0-4.139 2.07 2.07 0 0 1 0 4.139zM7.114 20.452H3.56V9h3.554v11.452zM22.225 0H1.771C.792 0 0 .774 0 1.727v20.545C0 23.227.792 24 1.771 24h20.451C23.2 24 24 23.227 24 22.273V1.727C24 .774 23.2 0 22.225 0z"/>
</svg>
